# xmcd
#
# Track frame offsets: 
#        150
#        14666
#        25424
#        38336
#        49418
#        62685
#        73433
#        88280
#        101761
#        111808
#
# Disc length: 1672 seconds
#
# Revision: 1
# Processed by: cddbd v1.5.2PL0 Copyright (c) Steve Scherf et al.
# Submitted via: ExactAudioCopy v0.99pb4
#
DISCID=8f06860a
DTITLE=The Hinsons - Hinsongs
DYEAR=1900
DGENRE=Southern Gospel
TTITLE0=1.Two Winning Hands
TTITLE1=2.Family Resemblance
TTITLE2=3.You Ain't Seen The Last Of Me
TTITLE3=4.Something Keeps Pullin' Me Home
TTITLE4=5.The Light
TTITLE5=6.Noah
TTITLE6=7.Call Me Gone
TTITLE7=8.Shine On
TTITLE8=9.Cost Of Living
TTITLE9=10.Beyond The Shadow Of A Doubt
EXTD=
EXTT0=
EXTT1=
EXTT2=
EXTT3=
EXTT4=
EXTT5=
EXTT6=
EXTT7=
EXTT8=
EXTT9=
PLAYORDER=
